<svg xmlns="http://www.w3.org/2000/svg" viewBox="0 0 180 180">
  <defs>
    <linearGradient id="bg" x1="0" y1="0" x2="1" y2="1">
      <stop offset="0%" stop-color="#1d2b45"/>
      <stop offset="60%" stop-color="#0f1b2f"/>
      <stop offset="100%" stop-color="#0a1321"/>
    </linearGradient>
    <radialGradient id="glow" cx="32%" cy="20%" r="70%">
      <stop offset="0%" stop-color="#d5b36a" stop-opacity="0.45"/>
      <stop offset="100%" stop-color="#d5b36a" stop-opacity="0"/>
    </radialGradient>
  </defs>
  <rect x="4" y="4" width="172" height="172" rx="40" fill="url(#bg)" stroke="#d5b36a" stroke-opacity=".32" stroke-width="2"/>
  <rect x="4" y="4" width="172" height="172" rx="40" fill="url(#glow)"/>
  <path d="M90 31c23 17 46 17 57 17v47c0 34-26 53-57 65-31-12-57-31-57-65V48c11 0 34 0 57-17Z" fill="none" stroke="#f4ecdc" stroke-opacity=".42" stroke-width="4.5" stroke-linecap="round" stroke-linejoin="round"/>
  <path d="M60 118V58l30 36 30-36v60" fill="none" stroke="#f4ecdc" stroke-width="5.5" stroke-linecap="round" stroke-linejoin="round"/>
  <path d="M60 118h60" fill="none" stroke="#f4ecdc" stroke-opacity=".8" stroke-width="4.5" stroke-linecap="round"/>
  <path d="M42 50c-5 8-7 16-7 26" fill="none" stroke="#d5b36a" stroke-opacity=".42" stroke-width="3.5" stroke-linecap="round"/>
  <path d="M138 50c5 8 7 16 7 26" fill="none" stroke="#d5b36a" stroke-opacity=".42" stroke-width="3.5" stroke-linecap="round"/>
</svg>

