<svg xmlns="http://www.w3.org/2000/svg" viewBox="0 0 64 64">
  <defs>
    <linearGradient id="bg" x1="0" y1="0" x2="1" y2="1">
      <stop offset="0%" stop-color="#1d2b45"/>
      <stop offset="60%" stop-color="#0f1b2f"/>
      <stop offset="100%" stop-color="#0a1321"/>
    </linearGradient>
    <radialGradient id="glow" cx="32%" cy="20%" r="65%">
      <stop offset="0%" stop-color="#d5b36a" stop-opacity="0.5"/>
      <stop offset="100%" stop-color="#d5b36a" stop-opacity="0"/>
    </radialGradient>
  </defs>
  <rect x="2" y="2" width="60" height="60" rx="14" fill="url(#bg)" stroke="#d5b36a" stroke-opacity=".35"/>
  <rect x="2" y="2" width="60" height="60" rx="14" fill="url(#glow)"/>
  <path d="M32 10c8 6 16 6 20 6v17c0 12-9 19-20 23C21 52 12 45 12 33V16c4 0 12 0 20-6Z" fill="none" stroke="#f4ecdc" stroke-opacity=".45" stroke-width="1.7" stroke-linecap="round" stroke-linejoin="round"/>
  <path d="M22 42V22l10 12 10-12v20" fill="none" stroke="#f4ecdc" stroke-width="2" stroke-linecap="round" stroke-linejoin="round"/>
  <path d="M22 42h20" fill="none" stroke="#f4ecdc" stroke-opacity=".75" stroke-width="1.8" stroke-linecap="round"/>
  <path d="M16 19c-1.8 2.8-2.8 6.2-2.8 9.7" fill="none" stroke="#d5b36a" stroke-opacity=".45" stroke-width="1.4" stroke-linecap="round"/>
  <path d="M48 19c1.8 2.8 2.8 6.2 2.8 9.7" fill="none" stroke="#d5b36a" stroke-opacity=".45" stroke-width="1.4" stroke-linecap="round"/>
</svg>

