<svg xmlns="http://www.w3.org/2000/svg" viewBox="0 0 109 44">
  <path d="M69.3 28.6l.9-3.1c1-3.6-.2-7.5-3.2-9.7-2.7-2-6.3-2.3-9.4-.9l-.3.2c-.6-2.8-2.6-5.1-5.3-6.2-3.5-1.4-7.5-.3-9.8 2.6-1.3-1-3-1.4-4.6-1.1-3.4.6-5.7 3.9-5.2 7.3.1.5.2.9.4 1.3C30.3 19.7 28 22.2 27 25.3l-.2.8h42.5z" fill="#F6821F"/>
  <path d="M89 28.8l.3-1c.7-2.4-.1-5-2.1-6.5-1.8-1.3-4.2-1.6-6.3-.6l-.2.1c-.4-1.9-1.7-3.4-3.5-4.1-2.3-.9-5-.2-6.6 1.7-.9-.7-2-.9-3.1-.7-2.3.4-3.8 2.6-3.5 4.9.1.3.1.6.3.9C62.4 23.7 60.8 25.4 60.1 27.6l-.1.5 29z" fill="#FBAD41"/>
  <path d="M32 37.5c0 3.9 3.2 7 7 7 3.9 0 7-3.1 7-7 0-3.9-3.1-7-7-7-3.8 0-7 3.1-7 7z" fill="#F6821F"/>
  <path d="M46 34.4c0-2.5 2-4.5 4.5-4.5s4.5 2 4.5 4.5-2 4.5-4.5 4.5-4.5-2-4.5-4.5z" fill="#FBAD41"/>
</svg>
