<svg xmlns="http://www.w3.org/2000/svg" viewBox="0 0 165 165">
  <defs>
    <linearGradient id="vg" x1="0" y1="0" x2="1" y2="1">
      <stop offset="0%" stop-color="#41d1ff"/>
      <stop offset="100%" stop-color="#bd34fe"/>
    </linearGradient>
  </defs>
  <path d="M120.831 57.2418L84.693 122.323C84.2567 123.073 83.3789 123.503 82.4503 123.39L18.9931 115.336C17.8893 115.201 17.0625 114.286 17.0625 113.172V51.5C17.0625 50.3954 17.0625 50 18.0625 50H120.419C121.624 50 122.341 51.3162 121.75 52.3663L120.831 57.2418Z" fill="url(#vg)" opacity="0.9"/>
  <path d="M82.8535 122.963L135.303 55.5577C136.079 54.5376 135.39 53.0726 134.085 53.0726H100.885C100.297 53.0726 99.7512 53.3763 99.4352 53.875L82.1138 80.6248C81.4649 81.6401 81.9745 82.9763 83.1463 83.3316L105.137 90.0586C106.426 90.4512 106.861 92.0125 105.966 93.0028L82.8535 122.963Z" fill="url(#vg)"/>
</svg>
