<svg width="640" height="160" viewBox="0 0 640 160" fill="none" xmlns="http://www.w3.org/2000/svg" role="img" aria-labelledby="title desc">
  <title id="title">Memorioso logo</title>
  <desc id="desc">Memorioso wordmark with ornamental emblem</desc>
  <defs>
    <linearGradient id="g1" x1="0" y1="0" x2="1" y2="1">
      <stop offset="0%" stop-color="#f1d48b" stop-opacity="0.95"/>
      <stop offset="100%" stop-color="#d4a74b" stop-opacity="0.95"/>
    </linearGradient>
    <linearGradient id="g2" x1="0" y1="0" x2="1" y2="1">
      <stop offset="0%" stop-color="#1f3444"/>
      <stop offset="100%" stop-color="#0f1f31"/>
    </linearGradient>
    <filter id="shadow" x="0" y="0" width="200%" height="200%">
      <feDropShadow dx="0" dy="3" stdDeviation="4" flood-color="#0b1b2b" flood-opacity="0.25"/>
    </filter>
  </defs>

  <rect x="12" y="12" width="136" height="136" rx="30" fill="url(#g2)" stroke="#d3b16f" stroke-opacity="0.65" stroke-width="2" filter="url(#shadow)"/>
  <path d="M80 34C98 47 116 47 124 47V78C124 101 104 115 80 126C56 115 36 101 36 78V47C44 47 62 47 80 34Z" stroke="url(#g1)" stroke-width="4" stroke-linecap="round" stroke-linejoin="round" opacity="0.75"/>
  <path d="M58 96V58L80 84L102 58V96" stroke="url(#g1)" stroke-width="4" stroke-linecap="round" stroke-linejoin="round"/>
  <path d="M58 96H102" stroke="url(#g1)" stroke-width="4" stroke-linecap="round" opacity="0.85"/>

  <text x="170" y="90" fill="#0f2334" font-family="Georgia, 'Times New Roman', serif" font-size="64" font-weight="700" letter-spacing="0.5">Memorioso</text>
  <text x="172" y="120" fill="#6d7786" font-family="'Avenir Next', 'Segoe UI', Arial, sans-serif" font-size="18" letter-spacing="5.5">HEIRLOOM STORYBOOKS</text>
</svg>